<?xml version="1.0" standalone="no"?><!DOCTYPE svg PUBLIC "-//W3C//DTD SVG 1.1//EN" "http://www.w3.org/Graphics/SVG/1.1/DTD/svg11.dtd"><svg t="1603242492988" class="icon" viewBox="0 0 1042 1024" version="1.1" xmlns="http://www.w3.org/2000/svg" p-id="45343" xmlns:xlink="http://www.w3.org/1999/xlink" width="130.25" height="128"><defs><style type="text/css"></style></defs><path d="M727.04 192H339.931429L146.285714 527.177143l193.645715 335.36h387.108571l193.462857-335.36z" fill="#FFC107" p-id="45344"></path><path d="M726.857143 889.910857H339.748571c-9.874286 0-18.834286-5.302857-23.771428-13.714286L122.514286 541.019429a27.245714 27.245714 0 0 1 0-27.428572l193.645714-335.36c4.937143-8.411429 13.897143-13.714286 23.771429-13.714286h387.108571c9.874286 0 18.834286 5.302857 23.771429 13.714286l193.462857 335.177143c4.937143 8.411429 4.937143 19.017143 0 27.428571l-193.645715 335.36c-4.754286 8.411429-13.897143 13.714286-23.771428 13.714286z m-371.2-54.857143h355.474286l177.737142-307.748571-177.737142-307.748572H355.657143l-177.737143 307.748572 177.737143 307.748571z" fill="#060606" p-id="45345"></path><path d="M590.262857 527.323429a56.777143 56.777143 0 1 1-56.685714-56.868572c31.085714 0 56.685714 25.417143 56.685714 56.868572" fill="#FFFFFF" p-id="45346"></path></svg>